<svg id="eVhODp0MeYZ1" xmlns="http://www.w3.org/2000/svg" xmlns:xlink="http://www.w3.org/1999/xlink" viewBox="0 0 48 48" shape-rendering="geometricPrecision" text-rendering="geometricPrecision" project-id="3d82ba558ee948b79b4d6640e6b6b330" export-id="ccaf75839e6f4f9ba3db25f50f6cd592" cached="false">
<style><![CDATA[
#eVhODp0MeYZ2_tr {animation: eVhODp0MeYZ2_tr__tr 2000ms linear infinite normal forwards}@keyframes eVhODp0MeYZ2_tr__tr { 0% {transform: translate(24px,24px) rotate(0deg)} 100% {transform: translate(24px,24px) rotate(721.4deg)}} #eVhODp0MeYZ8 {animation: eVhODp0MeYZ8_s_do 2000ms linear infinite normal forwards}@keyframes eVhODp0MeYZ8_s_do { 0% {stroke-dashoffset: -8} 50% {stroke-dashoffset: -8} 100% {stroke-dashoffset: 0}} #eVhODp0MeYZ9 {animation: eVhODp0MeYZ9_s_do 2000ms linear infinite normal forwards}@keyframes eVhODp0MeYZ9_s_do { 0% {stroke-dashoffset: -7} 45% {stroke-dashoffset: 0} 100% {stroke-dashoffset: 0}} #eVhODp0MeYZ10 {animation: eVhODp0MeYZ10_s_do 2000ms linear infinite normal forwards}@keyframes eVhODp0MeYZ10_s_do { 0% {stroke-dashoffset: -40} 100% {stroke-dashoffset: 0}} #eVhODp0MeYZ11 {animation: eVhODp0MeYZ11_s_do 2000ms linear infinite normal forwards}@keyframes eVhODp0MeYZ11_s_do { 0% {stroke-dashoffset: -40} 35% {stroke-dashoffset: -40} 100% {stroke-dashoffset: 0}} #eVhODp0MeYZ12 {animation: eVhODp0MeYZ12_s_do 2000ms linear infinite normal forwards}@keyframes eVhODp0MeYZ12_s_do { 0% {stroke-dashoffset: -10} 30% {stroke-dashoffset: 0} 100% {stroke-dashoffset: 0}} #eVhODp0MeYZ13 {animation: eVhODp0MeYZ13_s_do 2000ms linear infinite normal forwards}@keyframes eVhODp0MeYZ13_s_do { 0% {stroke-dashoffset: 40} 35% {stroke-dashoffset: 40} 100% {stroke-dashoffset: 0}} #eVhODp0MeYZ14 {animation: eVhODp0MeYZ14_s_do 2000ms linear infinite normal forwards}@keyframes eVhODp0MeYZ14_s_do { 0% {stroke-dashoffset: 10} 30% {stroke-dashoffset: 0} 100% {stroke-dashoffset: 0}} #eVhODp0MeYZ15 {animation: eVhODp0MeYZ15_s_do 2000ms linear infinite normal forwards}@keyframes eVhODp0MeYZ15_s_do { 0% {stroke-dashoffset: 40} 100% {stroke-dashoffset: 0}} #eVhODp0MeYZ16 {animation: eVhODp0MeYZ16_s_do 2000ms linear infinite normal forwards}@keyframes eVhODp0MeYZ16_s_do { 0% {stroke-dashoffset: 8} 50% {stroke-dashoffset: 8} 100% {stroke-dashoffset: 0}} #eVhODp0MeYZ17 {animation: eVhODp0MeYZ17_s_do 2000ms linear infinite normal forwards}@keyframes eVhODp0MeYZ17_s_do { 0% {stroke-dashoffset: 7} 45% {stroke-dashoffset: 0} 100% {stroke-dashoffset: 0}} #eVhODp0MeYZ18 {animation: eVhODp0MeYZ18_s_do 2000ms linear infinite normal forwards}@keyframes eVhODp0MeYZ18_s_do { 0% {stroke-dashoffset: 60} 100% {stroke-dashoffset: 0}} #eVhODp0MeYZ24 {animation: eVhODp0MeYZ24_s_do 2000ms linear infinite normal forwards}@keyframes eVhODp0MeYZ24_s_do { 0% {stroke-dashoffset: 60} 100% {stroke-dashoffset: 0}}
]]></style>
<g id="eVhODp0MeYZ2_tr" transform="translate(24,24) rotate(0)"><g transform="translate(-24,-24)"><path d="M24,26.912c1.6082,0,2.912-1.3038,2.912-2.912s-1.3038-2.9121-2.912-2.9121-2.9121,1.3038-2.9121,2.9121s1.3038,2.912,2.9121,2.912Z" fill="none" stroke="#2f80ed" strokeWidth="1.40625" strokeLinecap="round" strokeLinejoin="round" strokeMiterlimit="10"/><path d="M22.544,21.4774v-.1858c0-1.0915-.2542-2.1681-.7423-3.1444l-.0354-.0707c-.3117-.6234.1416-1.3568.8385-1.3568h1.3055c1.5248,0,2.6436,1.433,2.2738,2.9122l-.4983,1.9932" fill="none" stroke="#2f80ed" strokeWidth="1.40625" strokeLinecap="round" strokeLinejoin="round" strokeMiterlimit="10"/><path d="M26.5225,22.544h.1858c1.0916,0,2.1682-.2542,3.1445-.7423l.0707-.0354c.6233-.3117,1.3568.1416,1.3568.8385v1.3055c0,1.5248-1.433,2.6436-2.9122,2.2738l-1.9932-.4983" fill="none" stroke="#2f80ed" strokeWidth="1.40625" strokeLinecap="round" strokeLinejoin="round" strokeMiterlimit="10"/><path d="M25.456,26.5225v.1858c0,1.0916.2541,2.1682.7423,3.1445l.0353.0707c.3117.6233-.1415,1.3568-.8385,1.3568h-1.3054c-1.5248,0-2.6436-1.433-2.2738-2.9122l.4982-1.9932" fill="none" stroke="#2f80ed" strokeWidth="1.40625" strokeLinecap="round" strokeLinejoin="round" strokeMiterlimit="10"/><path d="M21.4774,25.456h-.1858c-1.0915,0-2.1681.2541-3.1444.7423l-.0707.0353c-.6234.3116-1.3568-.1415-1.3568-.8385v-1.3054c0-1.5248,1.433-2.6436,2.9122-2.2739l1.9932.4983" fill="none" stroke="#2f80ed" strokeWidth="1.40625" strokeLinecap="round" strokeLinejoin="round" strokeMiterlimit="10"/></g></g><path id="eVhODp0MeYZ8" d="M41.4727,16.9401c.3985.1221.8678.1986,1.4559.1986c1.4561,0,2.1842-.4688,2.9121-.9375" transform="translate(-30 27)" fill="none" stroke="#2f80ed" strokeWidth="1.40625" strokeLinecap="round" strokeLinejoin="round" strokeMiterlimit="10" stroke-dashoffset="-8" stroke-dasharray="4.59"/><path id="eVhODp0MeYZ9" d="M35.7669,15.4278c.3726-.1019.8065-.1641,1.3373-.1641.5883,0,1.0577.0765,1.4563.1985" transform="translate(-30 27)" fill="none" stroke="#2f80ed" strokeWidth="1.40625" strokeLinecap="round" strokeLinejoin="round" strokeMiterlimit="10" stroke-dashoffset="-7" stroke-dasharray="2.83"/><path id="eVhODp0MeYZ10" d="M32.9304,12.5071c1.4236-.5164,1.9483-1.6116,4.1739-1.6116.200395,0,.387.008879.561713.025415c2.364178.223761,2.550789,1.849585,5.262587,1.849585c1.4561,0,2.1842-.4687,2.9121-.9375" transform="translate(-30 27)" fill="none" stroke="#2f80ed" strokeWidth="1.40625" strokeLinecap="round" strokeLinejoin="round" strokeMiterlimit="10" stroke-dashoffset="-40" stroke-dasharray="10"/><path id="eVhODp0MeYZ11" d="M37.1043,6.52734c2.9122,0,2.9122,1.875,5.8243,1.875c1.4561,0,2.1842-.46875,2.9122-.9375" transform="translate(-30 27)" fill="none" stroke="#2f80ed" strokeWidth="1.40625" strokeLinecap="round" strokeLinejoin="round" strokeMiterlimit="10" stroke-dashoffset="-40" stroke-dasharray="20"/><path id="eVhODp0MeYZ12" d="M31.2803,8.40229c1.456,0,2.1841-.46875,2.912-.93759" transform="translate(-30 27.172259)" fill="none" stroke="#2f80ed" strokeWidth="1.40625" strokeLinecap="round" strokeLinejoin="round" strokeMiterlimit="10" stroke-dashoffset="-10" stroke-dasharray="6"/><path id="eVhODp0MeYZ13" d="M37.1043,6.52734c2.9122,0,2.9122,1.875,5.8243,1.875c1.4561,0,2.1842-.46875,2.9122-.9375" fill="none" stroke="#2f80ed" strokeWidth="1.40625" strokeLinecap="round" strokeLinejoin="round" strokeMiterlimit="10" stroke-dashoffset="40" stroke-dasharray="20"/><path id="eVhODp0MeYZ14" d="M31.2803,8.40229c1.456,0,2.1841-.46875,2.912-.93759" fill="none" stroke="#2f80ed" strokeWidth="1.40625" strokeLinecap="round" strokeLinejoin="round" strokeMiterlimit="10" stroke-dashoffset="10" stroke-dasharray="6"/><path id="eVhODp0MeYZ15" d="M32.9304,12.5071c1.4236-.5164,1.9483-1.6116,4.1739-1.6116.200395,0,.387.008879.561713.025415c2.364178.223761,2.550789,1.849585,5.262587,1.849585c1.4561,0,2.1842-.4687,2.9121-.9375" fill="none" stroke="#2f80ed" strokeWidth="1.40625" strokeLinecap="round" strokeLinejoin="round" strokeMiterlimit="10" stroke-dashoffset="40" stroke-dasharray="10"/><path id="eVhODp0MeYZ16" d="M41.4727,16.9401c.3985.1221.8678.1986,1.4559.1986c1.4561,0,2.1842-.4688,2.9121-.9375" fill="none" stroke="#2f80ed" strokeWidth="1.40625" strokeLinecap="round" strokeLinejoin="round" strokeMiterlimit="10" stroke-dashoffset="8" stroke-dasharray="4.59"/><path id="eVhODp0MeYZ17" d="M35.7669,15.4278c.3726-.1019.8065-.1641,1.3373-.1641.5883,0,1.0577.0765,1.4563.1985" fill="none" stroke="#2f80ed" strokeWidth="1.40625" strokeLinecap="round" strokeLinejoin="round" strokeMiterlimit="10" stroke-dashoffset="7" stroke-dasharray="2.83"/><path id="eVhODp0MeYZ18" d="M21.0877,11.2205c-5.2452,1.1903-9.2953,5.527-10.0615,10.9209-.0328.231-.23.4028-.4634.4028h-3.94339c-.25885,0-.46875-.2099-.46875-.4687v-1.0826c0-.3744-.41729-.5977-.72882-.39L0.911812,23.6101c-.27825.1856-.27825.5945,0,.78L5.42184,27.3974c.31153.2077.72882-.0156.72882-.39v-1.0826c0-.2588.2099-.4687.46875-.4687h4.06059c1.6341,0,3.0218-1.2016,3.2483-2.82.2438-1.7418.9441-3.8797,2.9174-5.853c1.7975-1.7975,4.2535-2.9291,6.9826-2.9741.6728-.0111,1.3309.043,1.9686.1564.4808.0855.9475-.2074,1.0739-.679l.2694-1.0053c.1412-.5273-.1957-1.0651-.7324-1.1647-.6671-.1239-1.3519-.1972-2.0504-.2159" fill="none" stroke="#2f80ed" strokeWidth="1.40625" strokeLinecap="round" strokeLinejoin="round" strokeMiterlimit="10" stroke-dashoffset="60" stroke-dasharray="60"/><path id="eVhODp0MeYZ24" d="M28.4039,33.1807c-1.2821.6243-2.7149.9852-4.2321,1.0102-.6728.0111-1.3309-.043-1.9686-.1564-.4808-.0855-.9475.2073-1.0739.679L20.86,35.7188c-.1413.5273.1956,1.0651.7323,1.1647.7805.145,1.5852.2207,2.4076.2207c6.6064,0,12.0707-4.8886,12.9738-11.2456.0328-.231.2301-.4028.4634-.4028h3.9434c.2589,0,.4688.2099.4688.4687v1.0825c0,.3745.4173.5978.7288.39l4.51-3.0072c.2783-.1855.2783-.5944,0-.78l-4.51-3.0072c-.3115-.2077-.7288.0156-.7288.39v1.0825c0,.2589-.2099.4688-.4688.4688h-4.0606c-1.634,0-3.0218,1.2016-3.2483,2.82-.2438,1.7418-.9441,3.8796-2.9174,5.853" fill="none" stroke="#2f80ed" strokeWidth="1.40625" strokeLinecap="round" strokeLinejoin="round" strokeMiterlimit="10" stroke-dashoffset="60" stroke-dasharray="60"/><path d="M12.3917,24.975c.4107,4.956,3.924,9.0315,8.5927,10.2793" fill="none" stroke="#2f80ed" strokeWidth="1.40625" strokeLinecap="round" strokeLinejoin="round" strokeMiterlimit="10"/><path d="M35.6082,23.0251c-.4107-4.956-3.924-9.0315-8.5926-10.2793" fill="none" stroke="#2f80ed" strokeWidth="1.40625" strokeLinecap="round" strokeLinejoin="round" strokeMiterlimit="10"/></svg>
