<svg id="eJUTMhso89w1" xmlns="http://www.w3.org/2000/svg" xmlns:xlink="http://www.w3.org/1999/xlink" viewBox="-1 -2 138 104" shape-rendering="geometricPrecision" text-rendering="geometricPrecision" project-id="44006f1dce534afb9b3ee386c202e6ac" export-id="d4b5681c710a4dc6b0d219807dec6aac" cached="false">
<style><![CDATA[
#eJUTMhso89w14_ts {animation: eJUTMhso89w14_ts__ts 1500ms linear infinite normal forwards}@keyframes eJUTMhso89w14_ts__ts { 0% {transform: translate(92.0693px,40.36945px) scale(0,0)} 53.333333% {transform: translate(92.0693px,40.36945px) scale(0,0);animation-timing-function: cubic-bezier(0.42,0,1,1)} 65.333333% {transform: translate(92.0693px,40.36945px) scale(1,1);animation-timing-function: cubic-bezier(0,0,0.58,1)} 72% {transform: translate(92.0693px,40.36945px) scale(0.8,0.8);animation-timing-function: cubic-bezier(0.42,0,1,1)} 78.666667% {transform: translate(92.0693px,40.36945px) scale(1,1)} 100% {transform: translate(92.0693px,40.36945px) scale(1,1)}} #eJUTMhso89w15_ts {animation: eJUTMhso89w15_ts__ts 1500ms linear infinite normal forwards}@keyframes eJUTMhso89w15_ts__ts { 0% {transform: translate(48.2615px,29.711426px) scale(0,0)} 53.333333% {transform: translate(48.2615px,29.711426px) scale(0,0);animation-timing-function: cubic-bezier(0.42,0,1,1)} 65.333333% {transform: translate(48.2615px,29.711426px) scale(1,1);animation-timing-function: cubic-bezier(0,0,0.58,1)} 72% {transform: translate(48.2615px,29.711426px) scale(0.8,0.8);animation-timing-function: cubic-bezier(0.42,0,1,1)} 78.666667% {transform: translate(48.2615px,29.711426px) scale(1,1)} 100% {transform: translate(48.2615px,29.711426px) scale(1,1)}} #eJUTMhso89w16_ts {animation: eJUTMhso89w16_ts__ts 1500ms linear infinite normal forwards}@keyframes eJUTMhso89w16_ts__ts { 0% {transform: translate(44.1277px,40.36945px) scale(0,0)} 53.333333% {transform: translate(44.1277px,40.36945px) scale(0,0);animation-timing-function: cubic-bezier(0.42,0,1,1)} 65.333333% {transform: translate(44.1277px,40.36945px) scale(1,1);animation-timing-function: cubic-bezier(0,0,0.58,1)} 72% {transform: translate(44.1277px,40.36945px) scale(0.8,0.8);animation-timing-function: cubic-bezier(0.42,0,1,1)} 78.666667% {transform: translate(44.1277px,40.36945px) scale(1,1)} 100% {transform: translate(44.1277px,40.36945px) scale(1,1)}} #eJUTMhso89w17_ts {animation: eJUTMhso89w17_ts__ts 1500ms linear infinite normal forwards}@keyframes eJUTMhso89w17_ts__ts { 0% {transform: translate(68.1004px,17.0766px) scale(0,0)} 53.333333% {transform: translate(68.1004px,17.0766px) scale(0,0);animation-timing-function: cubic-bezier(0.42,0,1,1)} 65.333333% {transform: translate(68.1004px,17.0766px) scale(1,1);animation-timing-function: cubic-bezier(0,0,0.58,1)} 72% {transform: translate(68.1004px,17.0766px) scale(0.8,0.8);animation-timing-function: cubic-bezier(0.42,0,1,1)} 78.666667% {transform: translate(68.1004px,17.0766px) scale(1,1)} 100% {transform: translate(68.1004px,17.0766px) scale(1,1)}} #eJUTMhso89w18_ts {animation: eJUTMhso89w18_ts__ts 1500ms linear infinite normal forwards}@keyframes eJUTMhso89w18_ts__ts { 0% {transform: translate(88.8601px,29.23381px) scale(0,0)} 53.333333% {transform: translate(88.8601px,29.23381px) scale(0,0);animation-timing-function: cubic-bezier(0.42,0,1,1)} 65.333333% {transform: translate(88.8601px,29.23381px) scale(1,1);animation-timing-function: cubic-bezier(0,0,0.58,1)} 72% {transform: translate(88.8601px,29.23381px) scale(0.8,0.8);animation-timing-function: cubic-bezier(0.42,0,1,1)} 78.666667% {transform: translate(88.8601px,29.23381px) scale(1,1)} 100% {transform: translate(88.8601px,29.23381px) scale(1,1)}} #eJUTMhso89w19_ts {animation: eJUTMhso89w19_ts__ts 1500ms linear infinite normal forwards}@keyframes eJUTMhso89w19_ts__ts { 0% {transform: translate(60.6699px,10.6242px) scale(0,0)} 53.333333% {transform: translate(60.6699px,10.6242px) scale(0,0);animation-timing-function: cubic-bezier(0.42,0,1,1)} 65.333333% {transform: translate(60.6699px,10.6242px) scale(1,1);animation-timing-function: cubic-bezier(0,0,0.58,1)} 72% {transform: translate(60.6699px,10.6242px) scale(0.8,0.8);animation-timing-function: cubic-bezier(0.42,0,1,1)} 78.666667% {transform: translate(60.6699px,10.6242px) scale(1,1)} 100% {transform: translate(60.6699px,10.6242px) scale(1,1)}} #eJUTMhso89w20_ts {animation: eJUTMhso89w20_ts__ts 1500ms linear infinite normal forwards}@keyframes eJUTMhso89w20_ts__ts { 0% {transform: translate(46.540562px,18.81056px) scale(0,0)} 53.333333% {transform: translate(46.540562px,18.81056px) scale(0,0);animation-timing-function: cubic-bezier(0.42,0,1,1)} 65.333333% {transform: translate(46.540562px,18.81056px) scale(1,1);animation-timing-function: cubic-bezier(0,0,0.58,1)} 72% {transform: translate(46.540562px,18.81056px) scale(0.8,0.8);animation-timing-function: cubic-bezier(0.42,0,1,1)} 78.666667% {transform: translate(46.540562px,18.81056px) scale(1,1)} 100% {transform: translate(46.540562px,18.81056px) scale(1,1)}} #eJUTMhso89w21_ts {animation: eJUTMhso89w21_ts__ts 1500ms linear infinite normal forwards}@keyframes eJUTMhso89w21_ts__ts { 0% {transform: translate(38.332081px,30.975613px) scale(0,0)} 53.333333% {transform: translate(38.332081px,30.975613px) scale(0,0);animation-timing-function: cubic-bezier(0.42,0,1,1)} 65.333333% {transform: translate(38.332081px,30.975613px) scale(1,1);animation-timing-function: cubic-bezier(0,0,0.58,1)} 72% {transform: translate(38.332081px,30.975613px) scale(0.8,0.8);animation-timing-function: cubic-bezier(0.42,0,1,1)} 78.666667% {transform: translate(38.332081px,30.975613px) scale(1,1)} 100% {transform: translate(38.332081px,30.975613px) scale(1,1)}} #eJUTMhso89w22_ts {animation: eJUTMhso89w22_ts__ts 1500ms linear infinite normal forwards}@keyframes eJUTMhso89w22_ts__ts { 0% {transform: translate(38.332081px,49.999999px) scale(0,0)} 53.333333% {transform: translate(38.332081px,49.999999px) scale(0,0);animation-timing-function: cubic-bezier(0.42,0,1,1)} 65.333333% {transform: translate(38.332081px,49.999999px) scale(1,1);animation-timing-function: cubic-bezier(0,0,0.58,1)} 72% {transform: translate(38.332081px,49.999999px) scale(0.8,0.8);animation-timing-function: cubic-bezier(0.42,0,1,1)} 78.666667% {transform: translate(38.332081px,49.999999px) scale(1,1)} 100% {transform: translate(38.332081px,49.999999px) scale(1,1)}} #eJUTMhso89w23_ts {animation: eJUTMhso89w23_ts__ts 1500ms linear infinite normal forwards}@keyframes eJUTMhso89w23_ts__ts { 0% {transform: translate(76.490051px,10.602131px) scale(0,0)} 53.333333% {transform: translate(76.490051px,10.602131px) scale(0,0);animation-timing-function: cubic-bezier(0.42,0,1,1)} 65.333333% {transform: translate(76.490051px,10.602131px) scale(1,1);animation-timing-function: cubic-bezier(0,0,0.58,1)} 72% {transform: translate(76.490051px,10.602131px) scale(0.8,0.8);animation-timing-function: cubic-bezier(0.42,0,1,1)} 78.666667% {transform: translate(76.490051px,10.602131px) scale(1,1)} 100% {transform: translate(76.490051px,10.602131px) scale(1,1)}} #eJUTMhso89w24_ts {animation: eJUTMhso89w24_ts__ts 1500ms linear infinite normal forwards}@keyframes eJUTMhso89w24_ts__ts { 0% {transform: translate(89.658714px,18.81056px) scale(0,0)} 53.333333% {transform: translate(89.658714px,18.81056px) scale(0,0);animation-timing-function: cubic-bezier(0.42,0,1,1)} 65.333333% {transform: translate(89.658714px,18.81056px) scale(1,1);animation-timing-function: cubic-bezier(0,0,0.58,1)} 72% {transform: translate(89.658714px,18.81056px) scale(0.8,0.8);animation-timing-function: cubic-bezier(0.42,0,1,1)} 78.666667% {transform: translate(89.658714px,18.81056px) scale(1,1)} 100% {transform: translate(89.658714px,18.81056px) scale(1,1)}} #eJUTMhso89w25_ts {animation: eJUTMhso89w25_ts__ts 1500ms linear infinite normal forwards}@keyframes eJUTMhso89w25_ts__ts { 0% {transform: translate(97.865562px,30.975613px) scale(0,0)} 53.333333% {transform: translate(97.865562px,30.975613px) scale(0,0);animation-timing-function: cubic-bezier(0.42,0,1,1)} 65.333333% {transform: translate(97.865562px,30.975613px) scale(1,1);animation-timing-function: cubic-bezier(0,0,0.58,1)} 72% {transform: translate(97.865562px,30.975613px) scale(0.8,0.8);animation-timing-function: cubic-bezier(0.42,0,1,1)} 78.666667% {transform: translate(97.865562px,30.975613px) scale(1,1)} 100% {transform: translate(97.865562px,30.975613px) scale(1,1)}} #eJUTMhso89w26_ts {animation: eJUTMhso89w26_ts__ts 1500ms linear infinite normal forwards}@keyframes eJUTMhso89w26_ts__ts { 0% {transform: translate(97.56915px,49.761747px) scale(0,0)} 53.333333% {transform: translate(97.56915px,49.761747px) scale(0,0);animation-timing-function: cubic-bezier(0.42,0,1,1)} 65.333333% {transform: translate(97.56915px,49.761747px) scale(1,1);animation-timing-function: cubic-bezier(0,0,0.58,1)} 72% {transform: translate(97.56915px,49.761747px) scale(0.8,0.8);animation-timing-function: cubic-bezier(0.42,0,1,1)} 78.666667% {transform: translate(97.56915px,49.761747px) scale(1,1)} 100% {transform: translate(97.56915px,49.761747px) scale(1,1)}} #eJUTMhso89w27_ts {animation: eJUTMhso89w27_ts__ts 1500ms linear infinite normal forwards}@keyframes eJUTMhso89w27_ts__ts { 0% {transform: translate(58.7059px,23.6467px) scale(0,0)} 53.333333% {transform: translate(58.7059px,23.6467px) scale(0,0)} 65.333333% {transform: translate(58.7059px,23.6467px) scale(1,1);animation-timing-function: cubic-bezier(0,0,0.58,1)} 72% {transform: translate(58.7059px,23.6467px) scale(0.8,0.8);animation-timing-function: cubic-bezier(0.42,0,1,1)} 78.666667% {transform: translate(58.7059px,23.6467px) scale(1,1)} 100% {transform: translate(58.7059px,23.6467px) scale(1,1)}} #eJUTMhso89w28_ts {animation: eJUTMhso89w28_ts__ts 1500ms linear infinite normal forwards}@keyframes eJUTMhso89w28_ts__ts { 0% {transform: translate(77.493173px,23.6467px) scale(0,0)} 53.333333% {transform: translate(77.493173px,23.6467px) scale(0,0);animation-timing-function: cubic-bezier(0.42,0,1,1)} 66.666667% {transform: translate(77.493173px,23.6467px) scale(1,1);animation-timing-function: cubic-bezier(0,0,0.58,1)} 73.333333% {transform: translate(77.493173px,23.6467px) scale(0.8,0.8);animation-timing-function: cubic-bezier(0.42,0,1,1)} 80% {transform: translate(77.493173px,23.6467px) scale(1,1)} 100% {transform: translate(77.493173px,23.6467px) scale(1,1)}} #eJUTMhso89w29_ts {animation: eJUTMhso89w29_ts__ts 1500ms linear infinite normal forwards}@keyframes eJUTMhso89w29_ts__ts { 0% {transform: translate(88.8601px,51.504185px) scale(0,0)} 53.333333% {transform: translate(88.8601px,51.504185px) scale(0,0)} 66.666667% {transform: translate(88.8601px,51.504185px) scale(1,1);animation-timing-function: cubic-bezier(0,0,0.58,1)} 73.333333% {transform: translate(88.8601px,51.504185px) scale(0.8,0.8);animation-timing-function: cubic-bezier(0.42,0,1,1)} 80% {transform: translate(88.8601px,51.504185px) scale(1,1)} 100% {transform: translate(88.8601px,51.504185px) scale(1,1)}} #eJUTMhso89w30_ts {animation: eJUTMhso89w30_ts__ts 1500ms linear infinite normal forwards}@keyframes eJUTMhso89w30_ts__ts { 0% {transform: translate(47.3408px,51.504185px) scale(0,0)} 53.333333% {transform: translate(47.3408px,51.504185px) scale(0,0);animation-timing-function: cubic-bezier(0.42,0,1,1)} 66.666667% {transform: translate(47.3408px,51.504185px) scale(1,1);animation-timing-function: cubic-bezier(0,0,0.58,1)} 73.333333% {transform: translate(47.3408px,51.504185px) scale(0.8,0.8);animation-timing-function: cubic-bezier(0.42,0,1,1)} 80% {transform: translate(47.3408px,51.504185px) scale(1,1)} 100% {transform: translate(47.3408px,51.504185px) scale(1,1)}} #eJUTMhso89w32 {animation: eJUTMhso89w32_s_do 1500ms linear infinite normal forwards}@keyframes eJUTMhso89w32_s_do { 0% {stroke-dashoffset: 40.29} 33.333333% {stroke-dashoffset: 0} 100% {stroke-dashoffset: 0}} #eJUTMhso89w33 {animation: eJUTMhso89w33_s_do 1500ms linear infinite normal forwards}@keyframes eJUTMhso89w33_s_do { 0% {stroke-dashoffset: 46.69} 33.333333% {stroke-dashoffset: 0} 100% {stroke-dashoffset: 0}} #eJUTMhso89w34 {animation: eJUTMhso89w34_s_do 1500ms linear infinite normal forwards}@keyframes eJUTMhso89w34_s_do { 0% {stroke-dashoffset: 41.6} 20% {stroke-dashoffset: 41.6} 33.333333% {stroke-dashoffset: 0} 100% {stroke-dashoffset: 0}} #eJUTMhso89w35 {animation: eJUTMhso89w35_s_do 1500ms linear infinite normal forwards}@keyframes eJUTMhso89w35_s_do { 0% {stroke-dashoffset: 21.61} 26.666667% {stroke-dashoffset: 21.61} 40% {stroke-dashoffset: 0} 100% {stroke-dashoffset: 0}} #eJUTMhso89w36 {animation: eJUTMhso89w36_s_do 1500ms linear infinite normal forwards}@keyframes eJUTMhso89w36_s_do { 0% {stroke-dashoffset: 24.63} 26.666667% {stroke-dashoffset: 24.63} 40% {stroke-dashoffset: 0} 100% {stroke-dashoffset: 0}} #eJUTMhso89w37 {animation: eJUTMhso89w37_s_do 1500ms linear infinite normal forwards}@keyframes eJUTMhso89w37_s_do { 0% {stroke-dashoffset: 12.27} 26.666667% {stroke-dashoffset: 12.27} 40% {stroke-dashoffset: 0} 100% {stroke-dashoffset: 0}} #eJUTMhso89w38 {animation: eJUTMhso89w38_s_do 1500ms linear infinite normal forwards}@keyframes eJUTMhso89w38_s_do { 0% {stroke-dashoffset: 10.38} 26.666667% {stroke-dashoffset: 10.38} 40% {stroke-dashoffset: 0} 100% {stroke-dashoffset: 0}} #eJUTMhso89w40_ts {animation: eJUTMhso89w40_ts__ts 1500ms linear infinite normal forwards}@keyframes eJUTMhso89w40_ts__ts { 0% {transform: translate(81.649903px,48.7221px) scale(0,0)} 39.333333% {transform: translate(81.649903px,48.7221px) scale(0,0)} 52.666667% {transform: translate(81.649903px,48.7221px) scale(1,1)} 100% {transform: translate(81.649903px,48.7221px) scale(1,1)}} #eJUTMhso89w41_ts {animation: eJUTMhso89w41_ts__ts 1500ms linear infinite normal forwards}@keyframes eJUTMhso89w41_ts__ts { 0% {transform: translate(84.5px,37.655202px) scale(0,0)} 39.333333% {transform: translate(84.5px,37.655202px) scale(0,0)} 52.666667% {transform: translate(84.5px,37.655202px) scale(1,1)} 100% {transform: translate(84.5px,37.655202px) scale(1,1)}} #eJUTMhso89w42_ts {animation: eJUTMhso89w42_ts__ts 1500ms linear infinite normal forwards}@keyframes eJUTMhso89w42_ts__ts { 0% {transform: translate(76.490051px,32.5544px) scale(0,0)} 39.333333% {transform: translate(76.490051px,32.5544px) scale(0,0)} 52.666667% {transform: translate(76.490051px,32.5544px) scale(1,1)} 100% {transform: translate(76.490051px,32.5544px) scale(1,1)}} #eJUTMhso89w43_ts {animation: eJUTMhso89w43_ts__ts 1500ms linear infinite normal forwards}@keyframes eJUTMhso89w43_ts__ts { 0% {transform: translate(68.100018px,27.7275px) scale(0,0)} 40% {transform: translate(68.100018px,27.7275px) scale(0,0)} 52.666667% {transform: translate(68.100018px,27.7275px) scale(1,1)} 100% {transform: translate(68.100018px,27.7275px) scale(1,1)}} #eJUTMhso89w44_ts {animation: eJUTMhso89w44_ts__ts 1500ms linear infinite normal forwards}@keyframes eJUTMhso89w44_ts__ts { 0% {transform: translate(56.657651px,54.121451px) scale(0,0)} 40% {transform: translate(56.657651px,54.121451px) scale(0,0)} 53.333333% {transform: translate(56.657651px,54.121451px) scale(1,1)} 100% {transform: translate(56.657651px,54.121451px) scale(1,1)}} #eJUTMhso89w45_ts {animation: eJUTMhso89w45_ts__ts 1500ms linear infinite normal forwards}@keyframes eJUTMhso89w45_ts__ts { 0% {transform: translate(52.1183px,43.711099px) scale(0,0)} 40% {transform: translate(52.1183px,43.711099px) scale(0,0)} 53.333333% {transform: translate(52.1183px,43.711099px) scale(1,1)} 100% {transform: translate(52.1183px,43.711099px) scale(1,1)}} #eJUTMhso89w46_ts {animation: eJUTMhso89w46_ts__ts 1500ms linear infinite normal forwards}@keyframes eJUTMhso89w46_ts__ts { 0% {transform: translate(57.343501px,33.3805px) scale(0,0)} 40% {transform: translate(57.343501px,33.3805px) scale(0,0)} 53.333333% {transform: translate(57.343501px,33.3805px) scale(1,1)} 100% {transform: translate(57.343501px,33.3805px) scale(1,1)}}
]]></style>
<g transform="translate(-.100551 15.824001)"><g id="eJUTMhso89w14_ts" transform="translate(92.0693,40.36945) scale(0,0)"><path d="M92.0693,40.3676c1.0988,1.8982,3.1486,3.1751,5.5016,3.1751c2.3491,0,4.3991-1.2769,5.4981-3.1751-1.099-1.8945-3.149-3.1714-5.4981-3.1714-2.353,0-4.4028,1.2769-5.5016,3.1714Z" transform="translate(-92.0693,-40.36945)" clipRule="evenodd" fill="#05a155" fillRule="evenodd"/></g><g id="eJUTMhso89w15_ts" transform="translate(48.2615,29.711426) scale(0,0)"><path d="M48.2615,28.8603c-1.8983,1.095-4.3118,1.1746-6.3503,0-2.0346-1.1746-3.1713-3.3077-3.1751-5.4978c1.902-1.095,4.3156-1.1745,6.3503,0s3.1751,3.3078,3.1751,5.4978Z" transform="translate(-48.2615,-29.711424)" clipRule="evenodd" fill="#05a155" fillRule="evenodd"/></g><g id="eJUTMhso89w16_ts" transform="translate(44.1277,40.36945) scale(0,0)"><path d="M44.1277,40.3676c-1.095,1.8982-3.1486,3.1751-5.4978,3.1751-2.3491,0-4.4027-1.2769-5.5015-3.1751c1.0988-1.8945,3.1524-3.1714,5.5015-3.1714c2.3492,0,4.4028,1.2769,5.4978,3.1714Z" transform="translate(-44.1277,-40.36945)" clipRule="evenodd" fill="#05a155" fillRule="evenodd"/></g><g id="eJUTMhso89w17_ts" transform="translate(68.1004,17.0766) scale(0,0)"><path d="M68.1004,17.0766c2.1294-1.2352,3.5654-3.5388,3.5654-6.1797c0-2.63716-1.436-4.94085-3.5654-6.17604-2.1332,1.23519-3.5654,3.53888-3.5654,6.17604c0,2.6409,1.4322,4.9445,3.5654,6.1797Z" transform="translate(-68.1004,-17.0766)" clipRule="evenodd" fill="#05a155" fillRule="evenodd"/></g><g id="eJUTMhso89w18_ts" transform="translate(88.8601,29.23381) scale(0,0)"><path d="M88.8601,28.3827c1.8983,1.095,4.3119,1.1746,6.3503,0c2.0347-1.1746,3.1714-3.3077,3.1751-5.4978-1.902-1.095-4.3156-1.1745-6.3502,0-2.0347,1.1746-3.1752,3.3078-3.1752,5.4978Z" transform="translate(-88.8601,-29.233809)" clipRule="evenodd" fill="#05a155" fillRule="evenodd"/></g><g id="eJUTMhso89w19_ts" transform="translate(60.6699,10.6242) scale(0,0)"><path d="M60.1286,10.6242c1.5497-1.54966,2.2507-3.86471,1.6445-6.13429C61.163,2.22033,59.4012,0.568343,57.2831,0c-1.5496,1.55347-2.2506,3.86473-1.6444,6.13431.6101,2.26959,2.3757,3.92159,4.4899,4.48989Z" transform="translate(-60.6699,-10.6242)" clipRule="evenodd" fill="#05a155" fillRule="evenodd"/></g><g id="eJUTMhso89w20_ts" transform="translate(46.540562,18.81056) scale(0,0)"><path d="M46.3254,18.596c.5645-2.1218.0189-4.4747-1.6444-6.1343-1.6596-1.6634-4.0163-2.209-6.1343-1.6444-.5646,2.118-.0152,4.4709,1.6444,6.1343c1.6633,1.6595,4.0163,2.2089,6.1343,1.6444Z" transform="translate(-46.540562,-18.81056)" clipRule="evenodd" fill="#05a155" fillRule="evenodd"/></g><g id="eJUTMhso89w21_ts" transform="translate(38.332081,30.975613) scale(0,0)"><path d="M38.3573,32.3992c-.5721-2.1181-2.2241-3.8837-4.4936-4.49-2.2696-.61-4.5809.0948-6.1306,1.6444.5684,2.1143,2.2203,3.8799,4.4899,4.49c2.2696.6062,4.5809-.0948,6.1343-1.6444Z" transform="translate(-38.332081,-30.975612)" clipRule="evenodd" fill="#05a155" fillRule="evenodd"/></g><g id="eJUTMhso89w22_ts" transform="translate(38.332081,49.999999) scale(0,0)"><path d="M38.3573,48.339c-1.5534-1.5497-3.8647-2.2506-6.1343-1.6444-2.2696.61-3.9215,2.3719-4.4899,4.4899c1.5497,1.5497,3.861,2.2506,6.1306,1.6444c2.2695-.61,3.9215-2.3719,4.4936-4.4899Z" transform="translate(-38.332081,-49.999999)" clipRule="evenodd" fill="#05a155" fillRule="evenodd"/></g><g id="eJUTMhso89w23_ts" transform="translate(76.490051,10.602131) scale(0,0)"><path d="M76.0685,10.6242c2.118-.5683,3.8837-2.2203,4.4899-4.48989C81.1685,3.86473,80.4637,1.55347,78.9178,0c-2.118.568343-3.8837,2.22033-4.4899,4.48991-.61,2.26958.0947,4.58463,1.6406,6.13429Z" transform="translate(-76.490046,-10.602131)" clipRule="evenodd" fill="#05a155" fillRule="evenodd"/></g><g id="eJUTMhso89w24_ts" transform="translate(89.658714,18.81056) scale(0,0)"><path d="M89.8755,18.596c2.118.5645,4.471.0151,6.1305-1.6444c1.6634-1.6634,2.209-4.0163,1.6444-6.1343-2.118-.5646-4.4709-.019-6.1343,1.6444-1.6595,1.6596-2.2089,4.0125-1.6406,6.1343Z" transform="translate(-89.658714,-18.81056)" clipRule="evenodd" fill="#05a155" fillRule="evenodd"/></g><g id="eJUTMhso89w25_ts" transform="translate(97.865562,30.975613) scale(0,0)"><path d="M97.8439,32.3992c1.5535,1.5496,3.8651,2.2506,6.1341,1.6406c2.27-.6063,3.922-2.3719,4.49-4.4862-1.55-1.5496-3.865-2.2544-6.134-1.6444-2.27.6063-3.9218,2.3719-4.4901,4.49Z" transform="translate(-97.865562,-30.975612)" clipRule="evenodd" fill="#05a155" fillRule="evenodd"/></g><g id="eJUTMhso89w26_ts" transform="translate(97.56915,49.761747) scale(0,0)"><path d="M97.8439,48.339c.5683,2.118,2.2201,3.8799,4.4901,4.4899c2.269.6062,4.584-.0947,6.134-1.6444-.568-2.118-2.22-3.8799-4.49-4.4899-2.269-.6062-4.5806.0947-6.1341,1.6444Z" transform="translate(-97.56915,-49.761747)" clipRule="evenodd" fill="#05a155" fillRule="evenodd"/></g><g id="eJUTMhso89w27_ts" transform="translate(58.7059,23.6467) scale(0,0)"><path d="M58.1468,23.6467c-2.675,0-5.2743-1.3905-6.7065-3.8723-1.436-2.4818-1.3375-5.4296-.0038-7.7484c2.675.0038,5.278,1.3905,6.7103,3.8761c1.4322,2.4818,1.3375,5.4296,0,7.7446Z" transform="translate(-58.705894,-23.6467)" clipRule="evenodd" fill="#05a155" fillRule="evenodd"/></g><g id="eJUTMhso89w28_ts" transform="translate(77.493173,23.6467) scale(0,0)"><path d="M78.0502,23.6467c2.675,0,5.278-1.3905,6.7103-3.8723s1.3375-5.4296,0-7.7484c-2.675.0038-5.2742,1.3905-6.7065,3.8761-1.436,2.4818-1.3375,5.4296-.0038,7.7446Z" transform="translate(-77.493173,-23.6467)" clipRule="evenodd" fill="#05a155" fillRule="evenodd"/></g><g id="eJUTMhso89w29_ts" transform="translate(88.8601,51.504185) scale(0,0)"><path d="M88.8601,52.3553c0,2.19,1.1405,4.3232,3.1752,5.4977c2.0346,1.1746,4.4482,1.095,6.3502,0-.0037-2.1938-1.1404-4.3232-3.1751-5.4977-2.0384-1.1746-4.452-1.095-6.3503,0Z" transform="translate(-88.8601,-51.504183)" clipRule="evenodd" fill="#05a155" fillRule="evenodd"/></g><g id="eJUTMhso89w30_ts" transform="translate(47.3408,51.504185) scale(0,0)"><path d="M47.3408,52.3553c-.0038,2.19-1.1405,4.3232-3.1751,5.4977-2.0347,1.1746-4.452,1.095-6.3503,0c0-2.1938,1.1405-4.3232,3.1751-5.4977c2.0347-1.1746,4.452-1.095,6.3503,0Z" transform="translate(-47.3408,-51.504185)" clipRule="evenodd" fill="#05a155" fillRule="evenodd"/></g></g><g transform="translate(-.100551 15.824)"><path id="eJUTMhso89w32" d="M40.432602,67.068943h22.323599v-8.800752l-4.016346-4.016346h-3.483954" transform="translate(.050399-.130393)" fill="none" stroke="#a05148" strokeWidth="2.7" stroke-dashoffset="40.29" stroke-dasharray="40.29"/><path id="eJUTMhso89w33" d="M95.717901,66.938549h-22.219338v-13.374349l4.729938-4.816219h4.3455" transform="translate(-.108232 0.000001)" fill="none" stroke="#a05148" strokeWidth="2.7" stroke-dashoffset="46.69" stroke-dasharray="46.69"/><path id="eJUTMhso89w34" d="M68.100401,68.352v-41.590744" transform="translate(-.000401 0)" fill="none" stroke="#a05148" strokeWidth="2.7" stroke-dashoffset="41.6" stroke-dasharray="41.6"/><path id="eJUTMhso89w35" d="M67.999999,48.7221L74.0034,42.60948l5.96565.038821l5.01105-4.993099" transform="translate(.000001 0.000001)" fill="none" stroke="#a05148" strokeWidth="2.7" stroke-dashoffset="21.61" stroke-dasharray="21.61"/><path id="eJUTMhso89w36" d="M68,54.0417l-6.795449-7.218049v-8.180551l-3.86105-5.262599" fill="none" stroke="#a05148" strokeWidth="2.7" stroke-dashoffset="24.63" stroke-dasharray="24.63"/><path id="eJUTMhso89w37" d="M74.003402,42.609481v-7.167978l2.830801-3.140802" fill="none" stroke="#a05148" strokeWidth="2.7" stroke-dashoffset="12.27" stroke-dasharray="12.27"/><path id="eJUTMhso89w38" d="M61.197,46.831199l-6.4303-.007548L52.118299,43.9061" transform="translate(.000001 0.000001)" fill="none" stroke="#a05148" strokeWidth="2.7" stroke-dashoffset="10.38" stroke-dasharray="10.38"/></g><g transform="translate(-.100551 15.824001)"><g id="eJUTMhso89w40_ts" transform="translate(81.649903,48.7221) scale(0,0)"><path d="M84.9801,47.3316c-.1932,0-.3751.0341-.5342.1023-.1668.0682-.3183.1705-.4509.3031-.2539.2538-.4092.6024-.4092.9851c0,.197.0379.3789.1023.5381.0682.1629.1743.3182.3069.4508.1326.1289.2841.235.4509.3032.1591.0644.341.1023.5342.1023.197,0,.3751-.0379.538-.1023.163-.0682.3145-.1743.4471-.3032.1326-.1326.2387-.2879.3069-.4508.0644-.1592.1023-.3411.1023-.5381c0-.1894-.0379-.3713-.1023-.5304v-.0038c-.0682-.1629-.1743-.3183-.3069-.4509s-.2841-.2349-.4471-.3031-.341-.1023-.538-.1023Zm-1.3034-1.7657c.4054-.1705.8487-.2614,1.3034-.2614.4585,0,.898.0909,1.3034.2614.4244.1743.8033.4282,1.1139.7389s.5646.6858.7389,1.1101h.0038c.1667.4055.2614.8488.2614,1.3072c0,.4585-.0947.898-.2614,1.3072-.1781.4244-.432.8033-.7427,1.114s-.6857.5645-1.1139.7388c-.4054.1667-.8449.2614-1.3034.2614-.4547,0-.898-.0947-1.3034-.2614-.4244-.1743-.8033-.4281-1.1139-.7388s-.5646-.6896-.7427-1.114c-.1667-.4092-.2614-.8487-.2614-1.3072c0-.9434.3827-1.7997,1.0041-2.4173.3106-.3107.6895-.5646,1.1139-.7389Z" transform="translate(-81.649903,-48.7221)" fill="#a05148"/></g><g id="eJUTMhso89w41_ts" transform="translate(84.5,37.655202) scale(0,0)"><path d="M86.67,34.5814c-.1932,0-.3751.0379-.5342.1061-.163.0644-.3183.1705-.4509.3032s-.2349.2841-.3031.4508c-.0682.1592-.1023.3411-.1023.5343c0,.197.0341.3751.1023.538s.1705.3145.3031.4471.2879.2387.4509.3069c.1591.0644.341.1023.5342.1023.197,0,.3789-.0379.538-.1023.163-.0682.3145-.1743.4471-.3069s.2387-.2842.3069-.4471c.0645-.1629.1023-.341.1023-.538c0-.1932-.0378-.3751-.1023-.5343-.0682-.1667-.1743-.3182-.3069-.4508s-.2841-.2388-.4471-.3032c-.1591-.0682-.341-.1061-.538-.1061Zm-1.3034-1.7656c.4054-.1667.8487-.2614,1.3034-.2614.4585,0,.898.0947,1.3072.2614.4243.1781.8032.4319,1.1139.7426s.5646.6896.7389,1.114c.1705.4054.2614.8487.2614,1.3034c0,.4585-.0909.898-.2614,1.3034-.1743.4281-.4282.8032-.7389,1.1139s-.6896.5646-1.1139.7427c-.4092.1667-.8487.2614-1.3072.2614-.4547,0-.898-.0947-1.3034-.2614-.4244-.1781-.8032-.432-1.1139-.7427s-.5646-.6858-.7389-1.1139c-.1705-.4054-.2614-.8449-.2614-1.3034c0-.4547.0909-.898.2614-1.3034.1743-.4244.4282-.8033.7389-1.114s.6895-.5645,1.1139-.7426Z" transform="translate(-84.5,-37.655193)" fill="#a05148"/></g><g id="eJUTMhso89w42_ts" transform="translate(76.490051,32.5544) scale(0,0)"><path d="M78.2285,29.7546c-.1932,0-.3713.0379-.5305.1023h-.0038c-.1667.0682-.3182.1743-.4508.3069s-.2387.2842-.3069.4471c-.0645.1629-.1023.341-.1023.538c0,.1933.0378.3751.1023.5343.0682.1667.1742.3182.3069.4509.25.2538.5986.4092.9851.4092.197,0,.3751-.0379.538-.1023.1629-.0682.3145-.1743.4471-.3069s.2387-.2842.3069-.4509c.0644-.1592.1023-.341.1023-.5343c0-.197-.0379-.3751-.1023-.538-.0682-.1629-.1743-.3145-.3069-.4471s-.2842-.2387-.4471-.3069c-.1629-.0644-.341-.1023-.538-.1023Zm-1.3072-1.7619v-.0038c.4054-.1667.8487-.2614,1.3072-.2614s.898.0947,1.3034.2614c.4243.1781.8032.432,1.1139.7427s.5646.6896.7427,1.1139c.1667.4054.2614.845.2614,1.3034s-.0947.898-.2614,1.3034c-.1781.4244-.432.8033-.7427,1.114s-.6858.5645-1.1139.7426c-.4054.1667-.8449.2615-1.3034.2615-.9435,0-1.7998-.3827-2.4174-1.0041-.3107-.3107-.5645-.6896-.7426-1.114-.1667-.4054-.2614-.8449-.2614-1.3034s.0947-.898.2614-1.3034c.1781-.4281.4319-.8032.7426-1.1139s.6858-.5646,1.1102-.7389Z" transform="translate(-76.490048,-32.5544)" fill="#a05148"/></g><g id="eJUTMhso89w43_ts" transform="translate(68.100018,27.7275) scale(0,0)"><path d="M68.0779,23.4459c-.197,0-.3789.0378-.538.1023-.1629.0682-.3145.1742-.4471.3069l-.0038-.0038c-.1288.1326-.2311.2841-.3031.4509-.0644.1591-.1023.341-.1023.538c0,.1932.0379.3751.1023.5342.0682.1667.1743.3183.3069.4509s.2842.2349.4471.3031c.1591.0682.341.1061.538.1061.1933,0,.3751-.0379.5343-.1061.1629-.0644.3182-.1705.4508-.3031.1327-.1326.235-.2842.3032-.4509.0682-.1591.106-.341.106-.5342c0-.197-.0378-.3789-.106-.538-.0682-.1668-.1705-.3183-.3032-.4509v.0038c-.1326-.1327-.2879-.2387-.4508-.3069-.1592-.0645-.341-.1023-.5343-.1023Zm-1.3034-1.7657c.4054-.1667.845-.2614,1.3034-.2614.4547,0,.898.0947,1.3034.2614.4244.1743.8033.4319,1.114.7389v.0037c.3107.3145.5683.6934.7388,1.114.1705.4054.2614.8449.2614,1.3034c0,.4547-.0909.898-.2614,1.3034-.1743.4243-.4281.8032-.7388,1.1139s-.6896.5646-1.114.7389c-.4054.1705-.8487.2614-1.3034.2614-.4584,0-.898-.0909-1.3034-.2614-.4281-.1743-.8032-.4282-1.1139-.7389-.3145-.3107-.5646-.6896-.7427-1.1139-.1667-.4054-.2614-.8487-.2614-1.3034c0-.4585.0947-.898.2614-1.3034.1743-.4206.4282-.7995.7427-1.114v-.0037c.3107-.307.6858-.5646,1.1139-.7389Z" transform="translate(-68.100002,-27.7275)" fill="#a05148"/></g><g id="eJUTMhso89w44_ts" transform="translate(56.657651,54.121451) scale(0,0)"><path d="M53.3123,52.7042c-.1933,0-.3751.0378-.5343.106-.1667.0645-.3183.1705-.4509.3032s-.2387.2841-.3069.4508c-.0644.1592-.1023.341-.1023.5343c0,.197.0379.3751.1023.538.0682.1629.1743.3145.3069.4471s.2842.2387.4509.3069c.1592.0644.341.1023.5343.1023.197,0,.3751-.0379.538-.1023.1629-.0682.3145-.1743.4471-.3069s.2387-.2842.3069-.4471c.0644-.1629.1023-.341.1023-.538c0-.1933-.0379-.3751-.1023-.5343-.0682-.1667-.1743-.3182-.3069-.4508s-.2842-.2387-.4471-.3032c-.1629-.0682-.341-.106-.538-.106Zm-1.3034-1.7657c.4054-.1667.8449-.2614,1.3034-.2614.4584,0,.8979.0947,1.3034.2614.4243.1781.8032.4319,1.1139.7426s.5646.6896.7426,1.114c.1668.4054.2615.8487.2615,1.3034c0,.4584-.0947.898-.2615,1.3034-.178.4281-.4319.8032-.7426,1.1139s-.6896.5646-1.1139.7427c-.4055.1667-.845.2614-1.3034.2614-.4585,0-.898-.0947-1.3034-.2614-.4244-.1781-.8033-.432-1.114-.7427s-.5645-.6858-.7426-1.1139c-.1667-.4054-.2615-.845-.2615-1.3034c0-.4547.0948-.898.2615-1.3034.1781-.4244.4319-.8033.7426-1.114s.6896-.5645,1.114-.7426Z" transform="translate(-56.657648,-54.121451)" fill="#a05148"/></g><g id="eJUTMhso89w45_ts" transform="translate(52.1183,43.711099) scale(0,0)"><path d="M50.6598,38.6093c.4622.0303.898.1553,1.2882.3486.4055.2008.7616.4774,1.0572.8146.2917.3334.5228.7275.6668,1.1594.1402.413.2046.8601.1743,1.3186-.0303.4584-.1554.8942-.3486,1.2844-.2008.4054-.4774.7654-.8146,1.0571-.3372.2956-.7275.5267-1.1556.6707h-.0038c-.413.1364-.8601.2008-1.3186.1705s-.8942-.1516-1.2844-.3448c-.4054-.2008-.7654-.4812-1.0572-.8184-.2955-.3335-.5228-.7237-.6668-1.1556l-.0038.0037c-.1402-.4168-.2008-.8638-.1705-1.3223.0303-.4623.1516-.898.3448-1.2882.2008-.4055.4812-.7654.8146-1.0572.3372-.2955.7313-.5228,1.1557-.6668h.0037c.4168-.1402.8601-.2046,1.3186-.1743Zm.394,2.1597c-.1591-.0758-.3372-.1288-.5266-.1402-.1895-.0114-.3713.0114-.538.0682-.1781.0606-.3411.1553-.4737.2728-.1364.1212-.25.2652-.3334.4319-.0796.1592-.1288.3373-.1402.5267-.0113.1895.0114.3713.0682.538v.0038c.0606.1743.1516.3334.2728.4699.1175.1364.2653.25.432.3334.1591.0795.3372.1288.5266.1402.1895.0113.3713-.0114.5381-.0682.178-.0607.3372-.1554.4736-.2728s.25-.2653.3334-.432c.0758-.1591.125-.3372.1402-.5266.0114-.1895-.0152-.3751-.072-.5419-.0568-.1742-.1516-.3334-.269-.4698-.1213-.1364-.2652-.2501-.432-.3334Z" transform="translate(-52.118291,-43.711093)" fill="#a05148"/></g><g id="eJUTMhso89w46_ts" transform="translate(57.343501,33.3805) scale(0,0)"><path d="M56.7373,28.1897c.4546.0758.8752.2425,1.2465.4774.3789.2387.7086.5532.9662.9207.2577.3637.4471.7805.5456,1.2162.0985.4282.1137.8791.0379,1.33-.0796.4546-.2463.8752-.4774,1.2465-.2425.3827-.557.7086-.9169.9662h-.0038c-.3675.2577-.7805.4471-1.22.5456-.4244.0985-.8753.1137-1.33.0379-.4546-.0795-.8752-.2463-1.2427-.4812-.3865-.2425-.7162-.557-.9738-.9207h.0038c-.2577-.3599-.4433-.7767-.5456-1.2162-.0947-.4282-.1137-.8791-.0341-1.33.0758-.4546.2425-.8752.4774-1.2465.2387-.3789.5532-.7086.9207-.9662v-.0038c.3599-.2539.7729-.4395,1.2162-.5418.4282-.0947.8791-.1137,1.33-.0341Zm.1705,2.1862c-.1478-.0947-.3221-.1591-.5077-.1932-.1933-.0303-.3752-.0266-.5457.0151-.178.0379-.3485.1175-.5001.2236l-.0038-.0038c-.144.1023-.269.2387-.3713.3978-.0909.1478-.1591.3183-.1895.5077-.0341.1895-.0265.3752.0114.5457.0379.178.1137.3447.2198.4925l.0038.0038c.1061.1516.2387.2766.394.3751.1478.0947.3183.1591.5077.1933.1895.0303.3751.0265.5456-.0114.1819-.0417.3486-.1175.4964-.2198v-.0038c.1478-.1061.2766-.2425.3751-.3978.0947-.1478.1629-.3183.1932-.5077.0341-.1895.0266-.3751-.0113-.5456-.0417-.1819-.1175-.3524-.2236-.4964-.1023-.1478-.2349-.2766-.394-.3751Z" transform="translate(-57.3435,-33.3805)" fill="#a05148"/></g></g></svg>
